<svg width="784" height="219" viewBox="0 0 784 219" fill="none" xmlns="http://www.w3.org/2000/svg">
<g clip-path="url(#clip0_1_4)">
<path d="M775.849 27.3864H44.837V217.114H775.849V27.3864Z" fill="#D52929"/>
<path d="M743.963 5.38741H12.9509V195.115H743.963V5.38741Z" fill="white" stroke="#D52929" stroke-width="8.19978"/>
<path d="M238.682 145.375C233.049 145.375 227.972 144.402 223.452 142.455C218.925 140.515 215.199 137.738 212.272 134.125C209.352 130.505 207.455 126.208 206.582 121.235L218.462 119.435C219.662 124.228 222.169 127.962 225.982 130.635C229.795 133.302 234.245 134.635 239.332 134.635C242.499 134.635 245.405 134.138 248.052 133.145C250.705 132.145 252.842 130.708 254.462 128.835C256.075 126.962 256.882 124.718 256.882 122.105C256.882 120.685 256.639 119.432 256.152 118.345C255.659 117.252 254.985 116.298 254.132 115.485C253.279 114.665 252.242 113.955 251.022 113.355C249.809 112.755 248.475 112.238 247.022 111.805L226.912 105.865C224.945 105.285 222.945 104.532 220.912 103.605C218.879 102.678 217.019 101.458 215.332 99.945C213.639 98.4383 212.265 96.5683 211.212 94.335C210.159 92.1017 209.632 89.385 209.632 86.185C209.632 81.3517 210.875 77.255 213.362 73.895C215.855 70.535 219.225 67.9917 223.472 66.265C227.725 64.5383 232.485 63.675 237.752 63.675C243.059 63.7483 247.809 64.695 252.002 66.515C256.202 68.3283 259.692 70.935 262.472 74.335C265.252 77.735 267.169 81.8483 268.222 86.675L256.012 88.745C255.465 85.805 254.302 83.2717 252.522 81.145C250.742 79.0183 248.562 77.385 245.982 76.245C243.402 75.0983 240.605 74.5083 237.592 74.475C234.685 74.4017 232.025 74.835 229.612 75.775C227.192 76.7217 225.265 78.0483 223.832 79.755C222.399 81.4617 221.682 83.425 221.682 85.645C221.682 87.825 222.315 89.585 223.582 90.925C224.855 92.2717 226.429 93.335 228.302 94.115C230.169 94.895 232.029 95.5417 233.882 96.055L248.382 100.145C250.202 100.652 252.265 101.332 254.572 102.185C256.879 103.038 259.112 104.228 261.272 105.755C263.432 107.282 265.222 109.308 266.642 111.835C268.055 114.355 268.762 117.525 268.762 121.345C268.762 125.305 267.965 128.782 266.372 131.775C264.772 134.775 262.582 137.282 259.802 139.295C257.022 141.315 253.815 142.832 250.182 143.845C246.549 144.865 242.715 145.375 238.682 145.375ZM305.552 145.375C299.519 145.375 294.395 144.032 290.182 141.345C285.969 138.652 282.745 134.962 280.512 130.275C278.279 125.588 277.142 120.268 277.102 114.315C277.142 108.242 278.305 102.872 280.592 98.205C282.879 93.5383 286.149 89.8783 290.402 87.225C294.655 84.5717 299.759 83.245 305.712 83.245C312.145 83.245 317.642 84.845 322.202 88.045C326.762 91.2383 329.769 95.615 331.222 101.175L319.882 104.445C318.762 101.138 316.919 98.5683 314.352 96.735C311.792 94.9017 308.859 93.985 305.552 93.985C301.812 93.985 298.742 94.865 296.342 96.625C293.942 98.385 292.162 100.792 291.002 103.845C289.842 106.898 289.242 110.388 289.202 114.315C289.242 120.382 290.632 125.285 293.372 129.025C296.119 132.765 300.179 134.635 305.552 134.635C309.225 134.635 312.195 133.792 314.462 132.105C316.735 130.418 318.472 127.992 319.672 124.825L331.222 127.555C329.295 133.295 326.115 137.702 321.682 140.775C317.249 143.842 311.872 145.375 305.552 145.375ZM395.202 143.745H383.652V114.805C383.652 112.512 383.462 110.158 383.082 107.745C382.702 105.325 381.975 103.082 380.902 101.015C379.829 98.9417 378.319 97.2683 376.372 95.995C374.432 94.7283 371.899 94.095 368.772 94.095C366.739 94.095 364.812 94.4283 362.992 95.095C361.179 95.7683 359.592 96.8517 358.232 98.345C356.865 99.8317 355.792 101.792 355.012 104.225C354.232 106.658 353.842 109.622 353.842 113.115L346.752 110.445C346.752 105.098 347.752 100.382 349.752 96.295C351.752 92.2083 354.622 89.0217 358.362 86.735C362.109 84.4417 366.632 83.295 371.932 83.295C376.005 83.295 379.422 83.9517 382.182 85.265C384.942 86.5717 387.185 88.2883 388.912 90.415C390.639 92.5417 391.955 94.8583 392.862 97.365C393.769 99.8717 394.385 102.322 394.712 104.715C395.039 107.115 395.202 109.225 395.202 111.045V143.745ZM353.842 143.745H342.282V65.265H352.482V107.605H353.842V143.745ZM435.482 145.375C429.629 145.375 424.495 144.095 420.082 141.535C415.669 138.975 412.235 135.395 409.782 130.795C407.329 126.202 406.102 120.872 406.102 114.805C406.102 108.372 407.312 102.792 409.732 98.065C412.145 93.345 415.515 89.695 419.842 87.115C424.162 84.535 429.192 83.245 434.932 83.245C440.932 83.245 446.039 84.635 450.252 87.415C454.465 90.195 457.615 94.145 459.702 99.265C461.795 104.392 462.622 110.478 462.182 117.525H450.792V113.385C450.719 106.552 449.422 101.502 446.902 98.235C444.375 94.9617 440.532 93.325 435.372 93.325C429.665 93.325 425.379 95.125 422.512 98.725C419.639 102.318 418.202 107.515 418.202 114.315C418.202 120.782 419.639 125.785 422.512 129.325C425.379 132.865 429.519 134.635 434.932 134.635C438.499 134.635 441.579 133.828 444.172 132.215C446.772 130.595 448.799 128.278 450.252 125.265L461.422 128.805C459.135 134.072 455.665 138.152 451.012 141.045C446.365 143.932 441.189 145.375 435.482 145.375ZM456.522 117.525H414.502V108.645H456.522V117.525ZM497.772 145.375C492.285 145.375 487.555 144.012 483.582 141.285C479.602 138.565 476.529 134.852 474.362 130.145C472.202 125.438 471.122 120.142 471.122 114.255C471.122 108.335 472.212 103.038 474.392 98.365C476.572 93.6983 479.669 90.0117 483.682 87.305C487.702 84.5983 492.472 83.245 497.992 83.245C503.552 83.245 508.229 84.5983 512.022 87.305C515.822 90.0117 518.695 93.7083 520.642 98.395C522.582 103.082 523.552 108.368 523.552 114.255C523.552 120.142 522.572 125.428 520.612 130.115C518.652 134.802 515.762 138.518 511.942 141.265C508.129 144.005 503.405 145.375 497.772 145.375ZM499.352 135.075C503.099 135.075 506.152 134.185 508.512 132.405C510.872 130.625 512.599 128.172 513.692 125.045C514.779 121.918 515.322 118.322 515.322 114.255C515.322 110.188 514.769 106.592 513.662 103.465C512.555 100.338 510.849 97.905 508.542 96.165C506.235 94.4183 503.299 93.545 499.732 93.545C495.959 93.545 492.855 94.4717 490.422 96.325C487.982 98.1783 486.172 100.668 484.992 103.795C483.812 106.915 483.222 110.402 483.222 114.255C483.222 118.142 483.812 121.658 484.992 124.805C486.172 127.945 487.952 130.442 490.332 132.295C492.712 134.148 495.719 135.075 499.352 135.075ZM525.462 143.745H515.322V101.395H514.012V65.265H525.462V143.745ZM562.902 145.325C558.835 145.325 555.419 144.668 552.652 143.355C549.892 142.048 547.649 140.332 545.922 138.205C544.195 136.085 542.879 133.768 541.972 131.255C541.065 128.748 540.449 126.298 540.122 123.905C539.795 121.505 539.632 119.398 539.632 117.585V84.885H551.182V113.815C551.182 116.108 551.372 118.462 551.752 120.875C552.139 123.295 552.865 125.538 553.932 127.605C555.005 129.678 556.515 131.352 558.462 132.625C560.402 133.892 562.935 134.525 566.062 134.525C568.095 134.525 570.022 134.192 571.842 133.525C573.655 132.852 575.245 131.768 576.612 130.275C577.972 128.788 579.042 126.828 579.822 124.395C580.602 121.962 580.992 118.998 580.992 115.505L588.082 118.175C588.082 123.522 587.082 128.238 585.082 132.325C583.082 136.412 580.212 139.598 576.472 141.885C572.732 144.178 568.209 145.325 562.902 145.325ZM592.492 143.745H582.362V126.735H580.992V84.885H592.492V143.745ZM620.232 143.745H608.842V63.625H620.232V143.745ZM662.142 145.375C656.262 145.375 651.159 144.048 646.832 141.395C642.505 138.742 639.172 135.082 636.832 130.415C634.485 125.748 633.312 120.362 633.312 114.255C633.312 108.115 634.512 102.712 636.912 98.045C639.312 93.3717 642.672 89.7383 646.992 87.145C651.319 84.545 656.369 83.245 662.142 83.245C668.029 83.245 673.135 84.5717 677.462 87.225C681.782 89.8783 685.125 93.5283 687.492 98.175C689.852 102.828 691.032 108.188 691.032 114.255C691.032 120.395 689.842 125.798 687.462 130.465C685.082 135.138 681.729 138.792 677.402 141.425C673.082 144.058 667.995 145.375 662.142 145.375ZM662.142 134.635C667.775 134.635 671.982 132.738 674.762 128.945C677.542 125.145 678.932 120.248 678.932 114.255C678.932 108.115 677.525 103.202 674.712 99.515C671.892 95.8283 667.702 93.985 662.142 93.985C658.329 93.985 655.189 94.8483 652.722 96.575C650.249 98.295 648.412 100.675 647.212 103.715C646.012 106.748 645.412 110.262 645.412 114.255C645.412 120.435 646.829 125.375 649.662 129.075C652.502 132.782 656.662 134.635 662.142 134.635Z" fill="#111111"/>
<path d="M56.352 72.23V148.758C56.352 154.482 60.926 159.107 66.572 159.107H158.56C164.207 159.107 168.78 154.482 168.78 148.758V72.23H56.352ZM84.459 151.441H64.018V131H84.459V151.441ZM84.459 125.889H64.018V105.448H84.459V125.889ZM84.459 100.337H64.018V79.896H84.459V100.337ZM110.011 151.441H89.57V131H110.011V151.441ZM110.011 125.889H89.57V105.448H110.011V125.889ZM110.011 100.337H89.57V79.896H110.011V100.337ZM135.563 151.441H115.122V131H135.563V151.441ZM135.563 125.889H115.122V105.448H135.563V125.889ZM135.563 100.337H115.122V79.896H135.563V100.337ZM161.115 151.441H140.674V131H161.115V151.441ZM161.115 125.889H140.674V105.448H161.115V125.889ZM161.115 100.337H140.674V79.896H161.115V100.337ZM158.56 46.678H141.951V35.18C141.959 34.6715 141.866 34.1665 141.677 33.6943C141.488 33.2221 141.207 32.7922 140.851 32.4297C140.494 32.0672 140.069 31.7793 139.6 31.5828C139.131 31.3863 138.627 31.2851 138.118 31.2851C137.61 31.2851 137.106 31.3863 136.637 31.5828C136.168 31.7793 135.743 32.0672 135.386 32.4297C135.03 32.7922 134.749 33.2221 134.56 33.6943C134.371 34.1665 134.278 34.6715 134.286 35.18V46.678H90.847V35.18C90.8307 34.1743 90.4198 33.2153 89.7029 32.5098C88.9859 31.8043 88.0203 31.4089 87.0145 31.4089C86.0086 31.4089 85.0431 31.8043 84.3261 32.5098C83.6092 33.2153 83.1982 34.1743 83.182 35.18V46.678H66.572C60.926 46.678 56.352 51.303 56.352 57.027V67.12H168.781V57.027C168.781 51.303 164.207 46.678 158.56 46.678ZM87.014 64.565C85.3291 64.5618 83.6921 64.0035 82.3563 62.9766C81.0205 61.9496 80.0603 60.5112 79.6241 58.8837C79.1878 57.2562 79.3 55.5303 79.9431 53.9729C80.5862 52.4156 81.7245 51.1135 83.182 50.268V56.9C83.1982 57.9057 83.6092 58.8648 84.3261 59.5702C85.0431 60.2757 86.0086 60.6711 87.0145 60.6711C88.0203 60.6711 88.9859 60.2757 89.7029 59.5702C90.4198 58.8648 90.8307 57.9057 90.847 56.9V50.256C92.311 51.0987 93.4556 52.4012 94.1031 53.9614C94.7507 55.5215 94.8648 57.2518 94.4277 58.8835C93.9907 60.5151 93.027 61.9567 91.6863 62.9843C90.3457 64.0119 88.7032 64.5669 87.014 64.565ZM138.118 64.566C136.433 64.5628 134.796 64.0045 133.46 62.9776C132.125 61.9506 131.164 60.5122 130.728 58.8847C130.292 57.2572 130.404 55.5313 131.047 53.9739C131.69 52.4166 132.829 51.1145 134.286 50.269V56.9C134.278 57.4085 134.371 57.9136 134.56 58.3857C134.749 58.8579 135.03 59.2878 135.386 59.6503C135.743 60.0128 136.168 60.3007 136.637 60.4972C137.106 60.6937 137.61 60.7949 138.118 60.7949C138.627 60.7949 139.131 60.6937 139.6 60.4972C140.069 60.3007 140.494 60.0128 140.851 59.6503C141.207 59.2878 141.488 58.8579 141.677 58.3857C141.866 57.9136 141.959 57.4085 141.951 56.9V50.256C143.415 51.0987 144.56 52.4012 145.207 53.9614C145.855 55.5215 145.969 57.2518 145.532 58.8835C145.095 60.5151 144.131 61.9567 142.79 62.9843C141.45 64.0119 139.807 64.5679 138.118 64.566Z" fill="#D52929"/>
</g>
<defs>
<clipPath id="clip0_1_4">
<rect width="783" height="219" fill="white" transform="translate(0.5)"/>
</clipPath>
</defs>
</svg>
