<svg xmlns="http://www.w3.org/2000/svg" version="1.1" xmlns:xlink="http://www.w3.org/1999/xlink" width="2000" height="219" viewBox="0 0 2000 219"><svg xml:space="preserve" width="2000" height="219" data-version="2" data-id="lg_DkiO7jfu7OCCBT1Em7" viewBox="0 0 783 219" x="0" y="0"><rect width="100%" height="100%" fill="transparent"></rect><rect width="609.126" height="216.732" x="-304.563" y="-108.366" fill="#d52929" paint-order="stroke" rx="0" ry="0" transform="matrix(1.2001 0 0 .8754 409.843 122.25)"></rect><rect width="609.126" height="216.732" x="-304.563" y="-108.366" fill="#fff" stroke="#d52929" stroke-width="8" paint-order="stroke" rx="0" ry="0" transform="matrix(1.2001 0 0 .8754 377.957 100.251)"></rect><path fill="#111" d="M238.182 145.375q-8.45 0-15.23-2.92-6.79-2.91-11.18-8.33-4.38-5.43-5.69-12.89l11.88-1.8q1.8 7.19 7.52 11.2 5.72 4 13.35 4 4.75 0 8.72-1.49 3.98-1.5 6.41-4.31 2.42-2.81 2.42-6.73 0-2.13-.73-3.76-.74-1.64-2.02-2.86-1.28-1.23-3.11-2.13-1.82-.9-4-1.55l-20.11-5.94q-2.95-.87-6-2.26-3.05-1.39-5.58-3.66-2.54-2.26-4.12-5.61-1.58-3.35-1.58-8.15 0-7.25 3.73-12.29 3.74-5.04 10.11-7.63 6.38-2.59 14.28-2.59 7.96.11 14.25 2.84 6.3 2.72 10.47 7.82 4.17 5.1 5.75 12.34l-12.21 2.07q-.82-4.41-3.49-7.6-2.67-3.19-6.54-4.9-3.87-1.72-8.39-1.77-4.36-.11-7.98 1.3-3.63 1.42-5.78 3.98-2.15 2.56-2.15 5.89 0 3.27 1.9 5.28 1.91 2.02 4.72 3.19 2.8 1.17 5.58 1.94l14.5 4.09q2.73.76 6.19 2.04 3.46 1.28 6.7 3.57t5.37 6.08q2.12 3.78 2.12 9.51 0 5.94-2.39 10.43-2.4 4.5-6.57 7.52-4.17 3.03-9.62 4.55-5.45 1.53-11.5 1.53m66.87 0q-9.05 0-15.37-4.03-6.32-4.04-9.67-11.07-3.35-7.03-3.41-15.96.06-9.11 3.49-16.11t9.81-10.98q6.38-3.98 15.31-3.98 9.65 0 16.49 4.8 6.84 4.79 9.02 13.13l-11.34 3.27q-1.68-4.96-5.53-7.71-3.84-2.75-8.8-2.75-5.61 0-9.21 2.64-3.6 2.64-5.34 7.22-1.74 4.58-1.8 10.47.06 9.1 4.17 14.71 4.12 5.61 12.18 5.61 5.51 0 8.91-2.53 3.41-2.53 5.21-7.28l11.55 2.73q-2.89 8.61-9.54 13.22-6.65 4.6-16.13 4.6m89.65-1.63h-11.55v-28.94q0-3.44-.57-7.06-.57-3.63-2.18-6.73-1.61-3.11-4.53-5.02-2.91-1.9-7.6-1.9-3.05 0-5.78 1-2.72 1.01-4.76 3.25-2.05 2.23-3.22 5.88-1.17 3.65-1.17 8.89l-7.09-2.67q0-8.02 3-14.15 3-6.13 8.61-9.56 5.62-3.44 13.57-3.44 6.11 0 10.25 1.97 4.14 1.96 6.73 5.15 2.59 3.19 3.95 6.95 1.36 3.76 1.85 7.35.49 3.6.49 6.33zm-41.36 0h-11.56v-78.48h10.2v42.34h1.36zm81.64 1.63q-8.78 0-15.4-3.84-6.62-3.84-10.3-10.74-3.68-6.89-3.68-15.99 0-9.65 3.63-16.74 3.62-7.08 10.11-10.95 6.48-3.87 15.09-3.87 9 0 15.32 4.17t9.45 11.85q3.14 7.69 2.48 18.26h-11.39v-4.14q-.11-10.25-3.89-15.15-3.79-4.91-11.53-4.91-8.56 0-12.86 5.4-4.31 5.39-4.31 15.59 0 9.7 4.31 15.01 4.3 5.31 12.42 5.31 5.35 0 9.24-2.42 3.9-2.43 6.08-6.95l11.17 3.54q-3.43 7.9-10.41 12.24-6.97 4.33-15.53 4.33m21.04-27.85h-42.02v-8.88h42.02zm41.25 27.85q-8.23 0-14.19-4.09-5.97-4.08-9.22-11.14-3.24-7.06-3.24-15.89 0-8.88 3.27-15.89 3.27-7 9.29-11.06 6.03-4.06 14.31-4.06 8.34 0 14.03 4.06 5.7 4.06 8.62 11.09 2.91 7.03 2.91 15.86 0 8.83-2.94 15.86-2.94 7.03-8.67 11.15-5.72 4.11-14.17 4.11m1.58-10.3q5.62 0 9.16-2.67t5.18-7.36q1.63-4.69 1.63-10.79 0-6.1-1.66-10.79-1.66-4.69-5.12-7.3-3.46-2.62-8.81-2.62-5.66 0-9.31 2.78-3.66 2.78-5.43 7.47-1.77 4.68-1.77 10.46 0 5.83 1.77 10.55 1.77 4.71 5.34 7.49 3.57 2.78 9.02 2.78m26.11 8.67h-10.14v-42.35h-1.31v-36.13h11.45zm37.44 1.58q-6.1 0-10.25-1.97-4.14-1.96-6.73-5.15-2.59-3.18-3.95-6.95-1.36-3.76-1.85-7.35-.49-3.6-.49-6.32v-32.7h11.55v28.93q0 3.44.57 7.06.58 3.63 2.18 6.73 1.61 3.11 4.53 5.02 2.91 1.9 7.6 1.9 3.05 0 5.78-1 2.72-1.01 4.77-3.25 2.04-2.23 3.21-5.88t1.17-8.89l7.09 2.67q0 8.02-3 14.15-3 6.13-8.61 9.56-5.61 3.44-13.57 3.44m29.59-1.58h-10.13v-17.01h-1.37v-41.85h11.5zm27.74 0h-11.39v-80.12h11.39zm41.91 1.63q-8.82 0-15.31-3.98t-10-10.98q-3.52-7-3.52-16.16 0-9.21 3.6-16.21 3.6-7.01 10.08-10.9 6.49-3.9 15.15-3.9 8.83 0 15.32 3.98 6.48 3.98 10.03 10.95 3.54 6.98 3.54 16.08 0 9.21-3.57 16.21-3.57 7.01-10.06 10.96-6.48 3.95-15.26 3.95m0-10.74q8.45 0 12.62-5.69 4.17-5.7 4.17-14.69 0-9.21-4.22-14.74-4.23-5.53-12.57-5.53-5.72 0-9.42 2.59-3.71 2.58-5.51 7.14-1.8 4.55-1.8 10.54 0 9.27 4.25 14.82 4.26 5.56 12.48 5.56"></path><path fill="#d52929" d="M55.852 72.23v76.528c0 5.724 4.574 10.349 10.22 10.349h91.988c5.647 0 10.22-4.625 10.22-10.349V72.23zm28.107 79.211H63.518V131h20.441zm0-25.552H63.518v-20.441h20.441zm0-25.552H63.518V79.896h20.441zm25.552 51.104H89.07V131h20.441zm0-25.552H89.07v-20.441h20.441zm0-25.552H89.07V79.896h20.441zm25.552 51.104h-20.441V131h20.441zm0-25.552h-20.441v-20.441h20.441zm0-25.552h-20.441V79.896h20.441zm25.552 51.104h-20.441V131h20.441zm0-25.552h-20.441v-20.441h20.441zm0-25.552h-20.441V79.896h20.441zm-2.555-53.659h-16.609V35.18a3.833 3.833 0 1 0-7.665 0v11.498H90.347V35.18a3.833 3.833 0 0 0-7.665 0v11.498h-16.61c-5.646 0-10.22 4.625-10.22 10.349V67.12h112.429V57.027c0-5.724-4.574-10.349-10.221-10.349M86.514 64.565a7.666 7.666 0 0 1-3.832-14.297V56.9a3.833 3.833 0 0 0 7.665 0v-6.644a7.666 7.666 0 0 1-3.833 14.31m51.104 0a7.666 7.666 0 0 1-3.832-14.297V56.9a3.833 3.833 0 1 0 7.665 0v-6.644a7.666 7.666 0 0 1-3.833 14.31"></path></svg></svg>